<?xml version="1.0" standalone="no"?><!DOCTYPE svg PUBLIC "-//W3C//DTD SVG 1.1//EN" "http://www.w3.org/Graphics/SVG/1.1/DTD/svg11.dtd"><svg t="1685629441667" class="icon" viewBox="0 0 1024 1024" version="1.1" xmlns="http://www.w3.org/2000/svg" p-id="2409" xmlns:xlink="http://www.w3.org/1999/xlink" width="200" height="200"><path d="M558.96 73.776L344 288.736l84.848 311.12 220.624-220.616z" fill="#FFFFFF" p-id="2410"></path><path d="M428.848 615.856a16.016 16.016 0 0 1-15.44-11.784L328.56 292.944a16 16 0 0 1 4.128-15.52l214.96-214.96a15.992 15.992 0 0 1 26.648 6.768L664.8 374.704a15.992 15.992 0 0 1-4.024 15.856L440.168 611.168c-3.04 3.04-7.128 4.688-11.32 4.688z m-66.968-322.376l75.152 275.56 194.384-194.392-80.16-270.552-189.376 189.384z" fill="#783741" p-id="2411"></path><path d="M428.848 599.856l299.816 73.544 214.96-214.96-294.152-79.2z" fill="#FFFFFF" p-id="2412"></path><path d="M728.664 689.4c-1.272 0-2.544-0.152-3.816-0.464L425.04 615.4a16 16 0 1 1-7.504-26.848L638.16 367.928a16 16 0 0 1 15.472-4.144l294.16 79.192a15.992 15.992 0 0 1 7.152 26.768l-214.96 214.96c-3.04 3.048-7.128 4.696-11.32 4.696zM460.248 591.088l263.472 64.624 189.016-189.016-258.504-69.6-193.984 193.992z" fill="#783741" p-id="2413"></path><path d="M644.264 380.528l298.656 74.696-73.472-299.88L563.832 75.152z" fill="#FFFFFF" p-id="2414"></path><path d="M942.92 471.224c-1.296 0-2.6-0.152-3.88-0.48l-298.656-74.696a16.008 16.008 0 0 1-11.592-11.448L548.352 79.232a16.016 16.016 0 0 1 19.536-19.552l305.616 80.184c5.672 1.496 10.08 5.968 11.48 11.672l73.472 299.88a16 16 0 0 1-15.536 19.808z m-285.6-103.92l263.744 65.96-64.896-264.856-269.888-70.824 71.04 269.72z" fill="#783741" p-id="2415"></path><path d="M498.907698 224.320262a28 34.216 45.001 1 0 39.597289 39.598671 28 34.216 45.001 1 0-39.597289-39.598671Z" fill="#783741" p-id="2416"></path><path d="M463.736 338.704c-13.36 13.36-33.064 15.336-44 4.4-10.936-10.928-8.96-30.632 4.4-44" fill="#783741" p-id="2417"></path><path d="M449.943013 409.089067a28 34.224 45.001 1 0 39.597289 39.598671 28 34.224 45.001 1 0-39.597289-39.598671Z" fill="#783741" p-id="2418"></path><path d="M571.818728 524.738605a28 34.224 45.001 1 0 39.597288 39.598671 28 34.224 45.001 1 0-39.597288-39.598671Z" fill="#783741" p-id="2419"></path><path d="M748.983014 492.842439a28 34.224 45.001 1 0 39.597288 39.598671 28 34.224 45.001 1 0-39.597288-39.598671Z" fill="#783741" p-id="2420"></path><path d="M741.556101 290.345277a34.224 28 44.999 1 0 39.597289-39.598671 34.224 28 44.999 1 0-39.597289 39.598671Z" fill="#783741" p-id="2421"></path><path d="M429.7206 444.292398a36 44 45.001 1 0 50.9108 50.912577 36 44 45.001 1 0-50.9108-50.912577Z" fill="#783741" p-id="2422"></path><path d="M596.543567 582.801561a36 44 45.004 1 0-50.908133-50.915242 36 44 45.004 1 0 50.908133 50.915242Z" fill="#783741" p-id="2423"></path><path d="M144 874.896a381.336 81.488 0 1 0 762.672 0 381.336 81.488 0 1 0-762.672 0Z" fill="#B8CBCD" p-id="2424"></path><path d="M144 457.4v304l280 160v-312z" fill="#FFBAB0" p-id="2425"></path><path d="M424 937.4c-2.736 0-5.48-0.704-7.936-2.112l-280-160A15.984 15.984 0 0 1 128 761.4v-304a16.016 16.016 0 0 1 23.64-14.064l280 152A16 16 0 0 1 440 609.4v312a15.976 15.976 0 0 1-16 16zM160 752.112l248 141.72V618.92L160 484.288v267.824z" fill="#783741" p-id="2426"></path><path d="M424 921.4l264-160v-304l-264 152z" fill="#FFBAB0" p-id="2427"></path><path d="M424 937.4a16 16 0 0 1-16-16v-312c0-5.728 3.056-11.008 8.016-13.864l264-152A16 16 0 0 1 704 457.4v304c0 5.592-2.92 10.784-7.704 13.68l-264 160c-2.552 1.544-5.424 2.32-8.296 2.32z m16-318.752v274.344l232-140.608V485.072L440 618.648z" fill="#783741" p-id="2428"></path><path d="M421.224 613.992l264-158.368-264-160.096-272.8 159.408z" fill="#FFBAB0" p-id="2429"></path><path d="M421.224 629.992c-2.784 0-5.568-0.728-8.056-2.176L140.36 468.76a16.016 16.016 0 0 1-0.016-27.64l272.808-159.408a15.976 15.976 0 0 1 16.368 0.136l264 160.096a16.016 16.016 0 0 1-0.064 27.4l-264 158.368c-2.528 1.52-5.384 2.28-8.232 2.28zM180.16 454.92l240.952 140.488 233.136-139.856-233.176-141.4L180.16 454.92z" fill="#783741" p-id="2430"></path><path d="M424 945.4a23.92 23.92 0 0 1-11.904-3.168l-280-160A24 24 0 0 1 120 761.4v-304c0-9.928 6.032-18.456 14.632-22.104a20.64 20.64 0 0 1 0.816-0.544l191.504-123.08-5.432-14.528a24 24 0 0 1 5.512-25.376l214.96-214.96a23.984 23.984 0 0 1 23.528-6.12l4.864 1.384 305.152 80.064a23.976 23.976 0 0 1 17.216 17.504l74.312 303.64c1.76 8-0.672 16.344-6.472 22.136l-214.96 214.96a24.016 24.016 0 0 1-23.984 5.984L720 695.84v65.552a24.008 24.008 0 0 1-11.832 20.688l-272 160a23.904 23.904 0 0 1-12.168 3.32zM168 747.472l255.824 146.184L672 747.672V663.424a23.992 23.992 0 0 1 31.008-22.952l18.872 5.768 195.28-195.28-67.632-276.024-283.424-74.36-194.216 194.208 6.808 18.2a23.992 23.992 0 0 1-9.504 28.592L168 470.88v276.592z" fill="#783741" p-id="2431"></path><path d="M208 606.288a34.216 28 90 1 0 56 0 34.216 28 90 1 0-56 0Z" fill="#783741" p-id="2432"></path><path d="M304 659.616a34.224 28 90 1 0 56 0 34.224 28 90 1 0-56 0Z" fill="#783741" p-id="2433"></path><path d="M208 712.064a34.224 28 90 1 0 56 0 34.224 28 90 1 0-56 0Z" fill="#783741" p-id="2434"></path><path d="M304 771.616a34.224 28 90 1 0 56 0 34.224 28 90 1 0-56 0Z" fill="#783741" p-id="2435"></path><path d="M472 767.168a34.224 28 90 1 0 56 0 34.224 28 90 1 0-56 0Z" fill="#783741" p-id="2436"></path><path d="M528 679.168a34.224 28 90 1 0 56 0 34.224 28 90 1 0-56 0Z" fill="#783741" p-id="2437"></path><path d="M584 595.616a34.224 28 90 1 0 56 0 34.224 28 90 1 0-56 0Z" fill="#783741" p-id="2438"></path><path d="M391.992 453.4a34.224 28 0 1 0 68.448 0 34.224 28 0 1 0-68.448 0Z" fill="#783741" p-id="2439"></path></svg>